<?xml version="1.0" encoding="UTF-8"?>
<svg width="1200pt" height="1200pt" version="1.1" viewBox="0 0 1200 1200" xmlns="http://www.w3.org/2000/svg">
 <path d="m600 100c-106.09 0-207.83 42.145-282.84 117.16-75.012 75.016-117.16 176.76-117.16 282.84 0 207.5 327 547 364.5 585 9.3867 9.4648 22.168 14.789 35.5 14.789s26.113-5.3242 35.5-14.789c37.5-38 364.5-377.5 364.5-585 0-70.215-18.484-139.19-53.59-200-35.105-60.809-85.602-111.3-146.41-146.41-60.809-35.105-129.79-53.59-200-53.59zm0 525c-33.152 0-64.945-13.168-88.387-36.613-23.445-23.441-36.613-55.234-36.613-88.387s13.168-64.945 36.613-88.387c23.441-23.445 55.234-36.613 88.387-36.613s64.945 13.168 88.387 36.613c23.445 23.441 36.613 55.234 36.613 88.387s-13.168 64.945-36.613 88.387c-23.441 23.445-55.234 36.613-88.387 36.613z"/>
</svg>
